<?xml version="1.0" encoding="utf-8"?>
<!-- Generator: Adobe Illustrator 17.0.0, SVG Export Plug-In . SVG Version: 6.00 Build 0)  -->
<!DOCTYPE svg PUBLIC "-//W3C//DTD SVG 1.1//EN" "http://www.w3.org/Graphics/SVG/1.1/DTD/svg11.dtd">
<svg version="1.1" id="图层_1" xmlns="http://www.w3.org/2000/svg" xmlns:xlink="http://www.w3.org/1999/xlink" x="0px" y="0px"
	 width="2048px" height="2048px" viewBox="0 0 2048 2048" enable-background="new 0 0 2048 2048" xml:space="preserve">
<polyline fill="none" stroke="#231815" stroke-miterlimit="10" points="1089.447,1524.346 1057.612,1516.918 1014.104,1490.388 
	956.8,1381.087 956.8,1348.191 947.249,1320.6 927.087,1290.887 923.904,1228.278 921.781,1118.976 907.986,1053.183 
	903.741,1016.042 905.864,994.819 916.475,982.085 947.249,974.656 913.292,993.758 909.047,1009.675 910.108,1019.226 
	932.393,1017.104 954.678,1026.654 972.718,1041.511 987.574,1061.673 1005.614,1093.508 1034.266,1125.344 1060.795,1145.506 
	1097.937,1159.301 1120.221,1166.729 1157.362,1174.158 1154.179,1144.445 1161.607,1126.405 1167.974,1115.793 1167.974,1093.508 
	1177.525,1066.979 1186.014,1041.511 1197.687,1013.92 1218.911,977.84 1231.645,957.678 1229.522,921.598 1244.379,890.824 
	1234.828,922.659 1235.889,953.433 1221.033,983.146 1200.871,1018.165 1184.953,1057.428 1174.341,1090.325 1172.219,1116.854 
	1159.485,1147.628 1162.668,1176.28 1184.953,1202.809 1202.993,1220.849 1224.216,1234.645 1240.134,1282.398 1254.991,1307.866 
	1276.214,1338.64 1291.071,1360.925 1290.009,1384.271 1277.275,1409.739 1266.664,1430.962 1261.358,1451.125 1248.624,1458.553 
	1215.727,1480.838 1192.381,1505.245 1177.525,1526.468 1158.424,1559.365 1152.057,1591.2 1154.179,1624.096 1163.729,1629.402 
	1192.381,1609.24 1208.299,1588.016 1176.464,1626.219 1165.852,1637.892 1182.831,1654.871 1194.504,1656.993 1223.155,1636.831 
	1225.767,1632.913 1235.889,1617.729 1240.134,1606.057 1212.544,1652.748 1199.809,1661.238 1229.522,1664.421 1252.868,1651.687 
	1271.969,1626.219 1241.195,1663.36 1278.336,1648.504 1305.927,1606.057 1335.64,1533.896 1377.026,1477.654 1398.249,1459.614 
	1407.8,1442.635 1414.167,1425.656 1414.167,1397.005 1401,1327 1393,1287 1393,1173 1403,1311 1419,1377 1429.024,1403.372 
	1454.492,1394.882 1464.042,1423.534 1453.431,1478.715 1446.002,1502.061 1450.247,1524.346 1465.104,1543.447 1474.654,1569.976 
	1476.776,1630.464 1489.511,1649.565 1576.527,1664.421 1592.445,1659.115 1596.689,1620.913 1572.282,1601.812 1593.506,1610.301 
	1601.995,1654.871 1651.871,1651.687 1643.381,1604.995 1627.464,1591.2 1648.687,1603.934 1657.177,1649.565 1684.767,1641.075 
	1656.115,1572.099 1644.442,1561.487 1628.525,1561.487 1608.362,1565.732 1592.445,1568.915 1576.527,1557.242 1563.793,1512.673 
	1563.793,1480.838 1566.976,1463.859 1580.772,1428.84 1582.894,1407.616 1589.261,1392.76 1598.812,1415.045 1605.179,1387.454 
	1610.485,1408.678 1632.769,1385.332 1633.831,1411.861 1668.849,1375.781 1700.685,1340.762 1702.807,1352.435 1713.419,1324.845 
	1720.847,1341.823 1735.703,1313.172 1768.6,1287.703 1795.129,1255.868 1796.191,1270.725 1814.231,1246.318 1817.414,1262.235 
	1839.699,1229.339 1849.249,1202.809 1850.311,1182.647 1863.045,1201.748 1863.045,1172.035 1871.534,1198.565 1882.146,1155.057 
	1877.901,1126.405 1887.452,1127.466 1890.635,1113.671 1913.981,1141.261 1907.614,1093.508 1926.715,1108.365 1920.348,1065.918 
	1924.593,1037.266 1924.593,1017.104 1935.205,1037.266 1943.694,996.941 1939.449,951.311 1926.715,933.271 1949,937.515 
	1933.082,902.496 1922.471,896.129 1949,904.619 1927.776,875.967 1907.614,861.111 1924.593,840.948 1944.755,808.052 
	1949,769.849 1941.572,732.708 1913.981,706.179 1873.656,702.995 1838.638,712.546 1821.659,727.402 1807.864,743.32 
	1854.555,794.787 1846.596,773.033 1867.82,770.911 1837.046,758.707 1865.167,742.789 1900.186,762.421 1910.798,796.379 
	1889.574,785.236 1892.227,815.48 1867.289,804.868 1856.678,827.684 1850.841,855.805 1840.229,877.028 1843.943,989.513 
	1830.679,1022.409 1833.332,1044.694 1824.312,1082.366 1823.251,1124.282 1813.169,1156.118 1797.782,1157.179 1758.519,1136.486 
	1751.091,1132.241 1752.682,1105.181 1773.906,1088.733 1789.823,1068.571 1797.782,1070.693 1808.925,1060.081 1805.741,1041.511 
	1777.089,1050 1727.214,1051.592 1687.42,1036.735 1686.889,1065.387 1703.338,1073.876 1714.48,1070.693 1728.275,1086.611 
	1748.968,1105.712 1747.376,1132.241 1723.5,1139.139 1674.686,1159.832 1655.054,1150.281 1649.218,1162.485 1653.993,1173.096 
	1674.155,1189.545 1687.42,1207.585 1704.399,1211.829 1753.744,1213.421 1771.253,1205.993 1794.599,1187.953 1812.639,1161.424 
	1777.62,1219.788 1770.192,1214.482 1747.907,1235.706 1735.703,1228.278 1715.541,1259.052 1708.644,1236.767 1696.971,1245.256 
	1689.012,1233.053 1669.38,1236.767 1664.074,1216.074 1647.095,1214.482 1623.219,1190.606 1617.913,1176.28 1612.076,1200.156 
	1604.118,1185.831 1607.301,1162.485 1587.669,1179.994 1598.281,1136.486 1590.853,1110.487 1585.547,1127.466 1578.649,1086.611 
	1575.996,1103.589 1564.323,1080.244 1564.323,1048.939 1549.467,1057.959 1552.12,1025.593 1551.059,996.411 1553.712,963.514 
	1546.284,970.412 1549.467,949.188 1533.549,968.289 1535.672,933.801 1549.998,914.169 1537.264,912.047 1550.528,892.946 
	1536.733,887.109 1534.08,879.681 1553.181,874.375 1571.752,854.744 1585.547,851.56 1579.18,846.785 1565.915,818.664 
	1544.692,830.336 1543.631,806.991 1520.285,812.296 1511.795,792.134 1501.183,768.788 1536.202,745.442 1569.099,751.809 
	1564.854,769.849 1539.386,779.4 1561.671,781.522 1560.609,794.256 1590.322,747.565 1594.567,722.096 1576.527,693.445 
	1604.118,710.424 1604.118,693.445 1630.647,712.546 1649.748,739.075 1646.565,712.546 1634.892,688.139 1666.727,712.546 
	1673.094,735.892 1678.4,709.362 1670.972,679.649 1703.868,724.219 1704.929,694.506 1698.562,672.221 1727.214,714.668 
	1725.092,732.708 1731.459,694.506 1725.092,676.466 1744.193,700.873 1745.254,732.708 1754.805,710.424 1751.621,683.894 
	1765.417,712.546 1766.478,732.708 1774.967,713.607 1770.722,690.261 1794.068,726.341 1796.191,740.136 1807.864,734.831 
	1843.943,700.873 1861.984,699.812 1893.819,689.2 1921.409,686.016 1889.574,667.976 1857.739,670.099 1884.268,644.631 
	1858.8,649.936 1831.209,653.12 1842.882,635.08 1805.741,639.325 1779.212,629.774 1801.496,619.162 1773.906,613.856 
	1805.741,599 1817.414,599 1777.089,594.755 1805.741,573.532 1757.988,579.899 1738.887,601.122 1737.826,579.899 1746.315,562.92 
	1719.786,587.327 1717.664,570.348 1717.664,545.941 1710.235,565.042 1704.929,548.064 1711.297,531.085 1691.134,548.064 
	1689.012,511.984 1693.256,490.76 1665.666,525.779 1659.299,536.391 1655.054,517.289 1657.177,499.249 1635.953,523.656 
	1622.158,504.555 1605.179,489.699 1585.016,471.659 1582.894,486.515 1562.732,469.536 1548.937,447.252 1549.998,439.824 
	1535.141,466.353 1542.569,483.332 1527.713,466.353 1520.285,444.068 1520.285,435.579 1500.122,468.475 1504.367,484.393 
	1489.511,458.925 1475.715,449.374 1474.654,475.904 1475.715,488.638 1460.859,474.842 1460.859,461.047 1462.981,498.188 
	1469.348,506.678 1448.125,493.944 1421.595,487.576 1404.616,497.127 1443.88,504.555 1448.125,518.351 1414.167,520.473 
	1407.8,531.085 1433.268,526.84 1447.063,530.024 1447.063,542.758 1471.471,538.513 1505.428,543.819 1499.061,527.901 
	1533.019,537.452 1525.591,517.289 1559.548,539.574 1589.261,567.165 1583.955,540.635 1613.668,585.205 1617.913,569.287 
	1643.381,589.449 1658.238,613.856 1642.32,608.551 1652.932,638.264 1630.647,627.652 1656.115,655.242 1598.812,646.753 
	1629.586,681.772 1604.118,675.405 1585.016,679.649 1561.671,675.405 1583.955,713.607 1549.998,693.445 1492.694,693.445 
	1461.92,731.647 1453.431,777.278 1469.348,827.153 1487.388,844.132 1494.817,845.193 1487.388,858.988 1440.696,885.518 
	1422.656,917.353 1452.369,912.047 1405.678,953.433 1395.066,977.84 1429.024,962.984 1414.167,996.941 1408.861,1011.798 
	1433.268,996.941 1433.268,1056.367 1436.452,1082.896 1450.247,1055.306 1456.614,1025.593 1473.593,1009.675 1468.287,1031.96 
	1484.205,1027.715 1465.104,1069.101 1468.287,1121.099 1485.266,1097.753 1484.205,1130.649 1507.551,1110.487 1499.061,1164.607 
	1521.346,1219.788 1529.835,1202.809 1541.508,1233.583 1552.12,1249.501 1553.181,1211.299 1572.282,1256.929 1562.732,1282.398 
	1548.937,1296.193 1582.894,1273.908 1577.588,1324.845 1566.976,1333.334 1592.445,1315.294 1583.955,1341.823 1611.546,1301.499 
	1618.974,1315.294 1630.647,1287.703 1637.014,1332.273 1647.626,1346.068 1662.482,1316.355 1686.889,1306.805 1686.889,1339.701 
	1662.482,1354.558 1594.567,1375.781 1568.038,1392.76 1522.407,1405.494 1528.774,1386.393 1479.96,1412.922 1482.082,1384.271 
	1469.348,1393.821 1475.715,1350.313 1485.266,1321.661 1490.572,1311.049 1469.348,1331.212 1469.348,1299.376 1470.409,1268.602 
	1465.104,1249.501 1454.492,1273.908 1456.614,1286.642 1456.614,1296.193 1439.635,1271.786 1440.696,1214.482 1430.085,1228.278 
	1429.024,1247.379 1414.167,1225.094 1410.984,1160.362 1399.311,1152.934 1397.188,1170.974 1371.72,1133.833 1367.475,1117.915 
	1355.802,1137.016 1343.068,1107.304 1335.64,1094.569 1333.518,1132.772 1319.722,1092.447 1323.967,1023.471 1326.089,998.002 
	1325.028,974.656 1303.805,988.452 1312.294,962.984 1300.621,962.984 1325.028,933.271 1354.741,903.558 1357.925,892.946 
	1331.395,906.741 1344.129,857.927 1340.946,842.009 1325.028,857.927 1327.151,814.419 1298.499,847.315 1331.395,763.482 
	1354.741,742.259 1382.332,715.729 1358.986,718.913 1345.191,727.402 1358.986,694.506 1377.026,679.649 1401.433,665.854 
	1347.313,682.833 1330.334,699.812 1366.414,646.753 1414.167,624.468 1390.821,621.285 1355.802,630.835 1392.943,601.122 
	1418.412,595.816 1442.819,590.511 1398.249,585.205 1365.353,597.939 1415.228,567.165 1438.574,559.736 1447.063,547.002 
	1432.207,538.513 1396.127,551.247 1348.374,537.452 1379.148,570.348 1343.068,568.226 1355.802,588.388 1317.6,584.144 
	1337.762,601.122 1286.826,595.816 1308.049,618.101 1271.969,609.612 1242.256,613.856 1273.031,627.652 1231.645,638.264 
	1192.381,648.875 1126.588,652.059 1061.856,646.753 1003.492,614.918 950.433,595.816 889.946,584.144 812.48,590.511 
	687.261,625.529 627.835,650.998 571.593,676.466 529.146,708.301 503.678,748.626 479.271,828.214 449.558,901.435 
	418.784,973.595 376.336,1041.511 338.134,1073.346 276.586,1109.426 228.833,1129.588 164.101,1177.341 146.061,1225.094 
	161.979,1214.482 145,1279.214 149.245,1320.6 159.856,1291.948 170.468,1340.762 186.386,1369.414 190.631,1352.435 
	224.588,1391.699 226.711,1339.701 238.384,1367.292 242.628,1337.579 267.035,1363.047 257.485,1324.845 267.035,1299.376 
	274.464,1279.214 288.259,1296.193 288.259,1257.991 281.892,1227.216 278.708,1191.136 284.014,1163.546 333.889,1130.649 
	391.193,1086.08 446.374,1033.021 475.026,984.207 493.066,927.965 512.167,875.967 530.207,825.031 553.553,781.522 
	579.021,764.544 573.715,817.602 583.266,860.049 600.245,886.579 607.673,934.332 609.795,982.085 622.529,1034.082 
	636.325,1045.755 620.407,1039.388 604.489,1060.612 579.021,1124.282 562.042,1169.913 544.002,1182.647 503.678,1203.871 
	493.066,1224.033 493.066,1262.235 504.739,1301.499 503.678,1326.967 499.433,1386.393 488.821,1413.984 482.454,1451.125 
	493.066,1469.165 506.861,1523.285 535.513,1550.875 563.104,1550.875 574.776,1542.386 574.776,1505.245 555.675,1485.082 
	576.899,1496.755 581.144,1520.101 576.899,1552.998 616.162,1550.875 624.652,1532.835 619.346,1490.388 606.612,1474.471 
	625.713,1489.327 626.774,1509.489 627.835,1541.325 650.12,1543.447 666.038,1534.958 671.344,1508.428 664.976,1484.021 
	649.059,1467.042 671.344,1484.021 673.466,1525.407 690.445,1519.04 692.567,1487.205 675.588,1452.186 647.998,1442.635 
	628.896,1447.941 617.224,1444.758 591.755,1404.433 589.633,1333.334 590.694,1303.621 614.04,1279.214 629.958,1246.318 
	637.386,1236.767 694.689,1192.198 742.442,1139.139 733.953,1120.038 690.445,1066.979 669.221,1024.532 656.487,1000.125 
	696.812,1065.918 723.341,1094.569 744.565,1116.854 747.748,1140.2 760.482,1184.769 780.645,1232.522 799.746,1262.235 
	824.153,1302.56 847.499,1328.028 831.581,1315.294 831.581,1331.212 828.398,1376.842 836.887,1398.066 848.56,1410.8 
	872.967,1433.085 884.64,1447.941 902.68,1496.755 927.087,1578.466 932.393,1615.607 959.984,1641.075 990.758,1642.136 
	1001.369,1637.892 1002.431,1613.485 996.064,1588.016 980.146,1572.099 1001.369,1585.894 1006.675,1604.995 1007.736,1640.014 
	1036.388,1641.075 1053.367,1629.402 1055.489,1602.873 1049.122,1574.221 1031.082,1558.304 1055.489,1576.344 1058.673,1592.261 
	1059.734,1630.464 1096.875,1619.852 1105.365,1611.362 1101.12,1569.976 1079.896,1546.631 1102.181,1562.548 1108.548,1589.078 
	1110.671,1611.362 1134.016,1596.506 1135.078,1568.915 1125.527,1537.08 1097.937,1523.285 "/>
</svg>
